<?xml version="1.0" encoding="UTF-8" standalone="no"?>
<!-- Created with Inkscape (http://www.inkscape.org/) -->

<svg
   width="100mm"
   height="50mm"
   viewBox="0 0 100 50"
   version="1.1"
   id="svg5"
   inkscape:version="1.2 (dc2aedaf03, 2022-05-15)"
   sodipodi:docname="headset status hud arrangement.svg"
   xml:space="preserve"
   inkscape:export-filename="connect button.svg"
   inkscape:export-xdpi="96"
   inkscape:export-ydpi="96"
   xmlns:inkscape="http://www.inkscape.org/namespaces/inkscape"
   xmlns:sodipodi="http://sodipodi.sourceforge.net/DTD/sodipodi-0.dtd"
   xmlns="http://www.w3.org/2000/svg"
   xmlns:svg="http://www.w3.org/2000/svg"><sodipodi:namedview
     id="namedview7"
     pagecolor="#505050"
     bordercolor="#eeeeee"
     borderopacity="1"
     inkscape:showpageshadow="0"
     inkscape:pageopacity="0"
     inkscape:pagecheckerboard="0"
     inkscape:deskcolor="#505050"
     inkscape:document-units="mm"
     showgrid="true"
     inkscape:zoom="2.5877449"
     inkscape:cx="144.33417"
     inkscape:cy="194.37774"
     inkscape:window-width="3840"
     inkscape:window-height="2066"
     inkscape:window-x="3829"
     inkscape:window-y="-11"
     inkscape:window-maximized="1"
     inkscape:current-layer="layer1"><inkscape:grid
       type="xygrid"
       id="grid629"
       units="mm"
       spacingx="2.5"
       spacingy="2.5"
       visible="true" /></sodipodi:namedview><defs
     id="defs2"><inkscape:path-effect
       effect="powerclip"
       id="path-effect502"
       is_visible="true"
       lpeversion="1"
       inverse="true"
       flatten="false"
       hide_clip="false"
       message="Use fill-rule evenodd on &lt;b&gt;fill and stroke&lt;/b&gt; dialog if no flatten result after convert clip to paths." /><inkscape:path-effect
       effect="powerclip"
       id="path-effect858"
       is_visible="true"
       lpeversion="1"
       inverse="true"
       flatten="false"
       hide_clip="false"
       message="Use fill-rule evenodd on &lt;b&gt;fill and stroke&lt;/b&gt; dialog if no flatten result after convert clip to paths." /><inkscape:path-effect
       effect="powerclip"
       id="path-effect635"
       is_visible="true"
       lpeversion="1"
       inverse="true"
       flatten="false"
       hide_clip="false"
       message="Use fill-rule evenodd on &lt;b&gt;fill and stroke&lt;/b&gt; dialog if no flatten result after convert clip to paths." /><inkscape:path-effect
       effect="powerclip"
       id="path-effect271"
       is_visible="true"
       lpeversion="1"
       inverse="true"
       flatten="false"
       hide_clip="false"
       message="Use fill-rule evenodd on &lt;b&gt;fill and stroke&lt;/b&gt; dialog if no flatten result after convert clip to paths." /><inkscape:path-effect
       effect="powerclip"
       id="path-effect1305"
       is_visible="true"
       lpeversion="1"
       inverse="true"
       flatten="false"
       hide_clip="false"
       message="Use fill-rule evenodd on &lt;b&gt;fill and stroke&lt;/b&gt; dialog if no flatten result after convert clip to paths." /><inkscape:path-effect
       effect="powerclip"
       id="path-effect1207"
       is_visible="true"
       lpeversion="1"
       inverse="true"
       flatten="false"
       hide_clip="false"
       message="Use fill-rule evenodd on &lt;b&gt;fill and stroke&lt;/b&gt; dialog if no flatten result after convert clip to paths." /><inkscape:path-effect
       effect="powerclip"
       id="path-effect1045"
       is_visible="true"
       lpeversion="1"
       inverse="true"
       flatten="false"
       hide_clip="false"
       message="Use fill-rule evenodd on &lt;b&gt;fill and stroke&lt;/b&gt; dialog if no flatten result after convert clip to paths." /><inkscape:path-effect
       effect="powerclip"
       id="path-effect754"
       is_visible="true"
       lpeversion="1"
       inverse="true"
       flatten="false"
       hide_clip="false"
       message="Use fill-rule evenodd on &lt;b&gt;fill and stroke&lt;/b&gt; dialog if no flatten result after convert clip to paths." /><clipPath
       clipPathUnits="userSpaceOnUse"
       id="clipPath740"><g
         id="g752"
         style="display:block"><path
           style="fill:#000000;stroke-width:0.264583"
           d="M 36.5,94.3999 H 55 v 17 h 16.5 v 18 H 55 v 16.5 H 36.5 v -16.5 H 20 v -18 h 16.5 z"
           id="path742"
           sodipodi:nodetypes="ccccccccccccc"
           inkscape:label="dpad" /><circle
           style="fill:#000000;stroke-width:0.258632"
           id="circle744"
           inkscape:label="btn west"
           r="10"
           cy="119.39989"
           cx="135" /><circle
           style="fill:#000000;stroke-width:0.258632"
           id="circle746"
           inkscape:label="btn east"
           r="10"
           cy="119.39989"
           cx="175" /><circle
           style="fill:#000000;stroke-width:0.258632"
           id="circle748"
           inkscape:label="btn south"
           r="10"
           cy="139.3999"
           cx="155" /><circle
           style="fill:#000000;stroke-width:0.258632"
           id="circle750"
           cx="155"
           cy="99.399895"
           inkscape:label="btn north"
           r="10" /></g></clipPath><clipPath
       clipPathUnits="userSpaceOnUse"
       id="clipPath1041"><path
         style="display:block;opacity:1;fill:#ffffff;stroke-width:0.264583"
         d="M 62.499999,42.5 H 137.5 c 0,0 -0.38931,-21 -9.5,-21 H 71.999999 c -9.687928,0 -9.5,21 -9.5,21 z"
         id="path1043"
         sodipodi:nodetypes="ccssc" /></clipPath><clipPath
       clipPathUnits="userSpaceOnUse"
       id="clipPath1203"><circle
         style="display:none;opacity:0.82;fill:#ffffff;stroke-width:0.26438"
         id="circle1205"
         cx="100"
         cy="100"
         r="83.5" /></clipPath><clipPath
       clipPathUnits="userSpaceOnUse"
       id="clipPath854"><path
         style="display:none;fill:#000000;stroke-width:0.246313"
         d="m 25,2.5 h 50.000001 c 0,0 22.5,-0.1258734 22.5,22.5 0,22.625873 -22.5,22.499995 -22.5,22.499995 L 25,47.5 C 25,47.5 2.5,47.5 2.5,25 2.5,2.5 25,2.5 25,2.5 Z"
         id="path856"
         sodipodi:nodetypes="cczcczc"
         inkscape:label="bubble cut" /><path
         id="lpe_path-effect858"
         style="display:block;fill:#000000;stroke-width:0.246313"
         class="powerclip"
         d="M -5,-5 H 105 V 55 H -5 Z M 25,2.5 C 25,2.5 2.5,2.5 2.5,25 2.5,47.5 25,47.5 25,47.5 l 50.000001,-5e-6 c 0,0 22.5,0.125878 22.5,-22.499995 0,-22.6258734 -22.5,-22.5 -22.5,-22.5 z" /></clipPath><clipPath
       clipPathUnits="userSpaceOnUse"
       id="clipPath1004"><circle
         style="display:none;fill:#000000;stroke-width:0.26088"
         id="circle1006"
         cy="50"
         cx="50"
         r="43.75"
         d="M 93.75,50 A 43.75,43.75 0 0 1 50,93.75 43.75,43.75 0 0 1 6.25,50 43.75,43.75 0 0 1 50,6.25 43.75,43.75 0 0 1 93.75,50 Z" /><path
         id="lpe_path-effect1008"
         style="display:inline;fill:#000000;stroke-width:0.26088"
         class="powerclip"
         d="M -5,-5 H 105 V 105 H -5 Z M 93.75,50 A 43.75,43.75 0 0 0 50,6.25 43.75,43.75 0 0 0 6.25,50 43.75,43.75 0 0 0 50,93.75 43.75,43.75 0 0 0 93.75,50 Z" /></clipPath><inkscape:path-effect
       effect="powerclip"
       id="path-effect1008"
       is_visible="true"
       lpeversion="1"
       inverse="true"
       flatten="false"
       hide_clip="false"
       message="Use fill-rule evenodd on &lt;b&gt;fill and stroke&lt;/b&gt; dialog if no flatten result after convert clip to paths." /><clipPath
       clipPathUnits="userSpaceOnUse"
       id="clipath_lpe_path-effect502"><circle
         style="display:none;fill:#000000;stroke-width:0.26088"
         id="circle504"
         cy="50"
         cx="50"
         r="43.75"
         d="M 93.75,50 A 43.75,43.75 0 0 1 50,93.75 43.75,43.75 0 0 1 6.25,50 43.75,43.75 0 0 1 50,6.25 43.75,43.75 0 0 1 93.75,50 Z" /><path
         id="lpe_path-effect502"
         style="display:inline;fill:#000000;stroke-width:0.26088"
         class="powerclip"
         d="M -5,-5 H 105 V 105 H -5 Z M 93.75,50 A 43.75,43.75 0 0 0 50,6.25 43.75,43.75 0 0 0 6.25,50 43.75,43.75 0 0 0 50,93.75 43.75,43.75 0 0 0 93.75,50 Z" /></clipPath></defs><g
     inkscape:label="Layer 1"
     inkscape:groupmode="layer"
     id="layer1"><path
       style="display:inline;opacity:1;fill:#ffffff;stroke-width:0.264583"
       d="m 25,0 h 50 c 0,0 25,0 25,25 0,25 -25,25 -25,25 H 25 C 25,50 0,50 0,25 0,0 25,0 25,0 Z"
       id="path1257"
       sodipodi:nodetypes="cczcczc"
       clip-path="url(#clipPath854)"
       inkscape:label="outline"
       inkscape:path-effect="#path-effect858"
       inkscape:original-d="m 25,0 h 50 c 0,0 25,0 25,25 0,25 -25,25 -25,25 L 25,50 C 25,50 0,50 0,25 0,0 25,0 25,0 Z" /><path
       style="display:block;fill:#ffffff;stroke-width:0.246313;opacity:0.3"
       d="m 25,2.5 h 50.000001 c 0,0 22.5,-0.1258734 22.5,22.5 0,22.625873 -22.5,22.499995 -22.5,22.499995 L 25,47.5 C 25,47.5 2.5,47.5 2.5,25 2.5,2.5 25,2.5 25,2.5 Z"
       id="path695"
       sodipodi:nodetypes="cczcczc"
       inkscape:label="inner bubble" /><path
       style="fill:#ffffff;stroke-width:0.264583"
       id="path353"
       clip-path="url(#clipPath1004)"
       transform="matrix(0.4,0,0,0.4,5.0398986,5.0623461)"
       inkscape:path-effect="#path-effect1008"
       sodipodi:type="arc"
       sodipodi:cx="50"
       sodipodi:cy="50"
       sodipodi:rx="50"
       sodipodi:ry="50"
       d="M 100,50 A 50,50 0 0 1 50,100 50,50 0 0 1 0,50 50,50 0 0 1 50,0 50,50 0 0 1 100,50 Z"
       inkscape:label="circle" /><path
       style="fill:#ffffff;stroke-width:0.264583"
       id="path498"
       clip-path="url(#clipath_lpe_path-effect502)"
       transform="matrix(0.4,0,0,0.4,54.935337,5.0623461)"
       inkscape:path-effect="#path-effect502"
       sodipodi:type="arc"
       sodipodi:cx="50"
       sodipodi:cy="50"
       sodipodi:rx="50"
       sodipodi:ry="50"
       d="M 100,50 A 50,50 0 0 1 50,100 50,50 0 0 1 0,50 50,50 0 0 1 50,0 50,50 0 0 1 100,50 Z"
       inkscape:label="circle" /><rect
       style="fill:#ffffff;stroke:#ffffff;stroke-width:0.256869"
       id="rect561"
       width="4.7431312"
       height="39.743134"
       x="47.628433"
       y="5.1284347"
       ry="2.4839458" /></g></svg>
